<svg xmlns="http://www.w3.org/2000/svg" width="70" height="70" fill="none"><g clip-path="url(#a)"><g filter="url(#b)"><path fill="#212121" d="m67.316 48.339-18.47-18.605 2.05-10.097a4.655 4.655 0 0 0 1.66.319h.014a4.723 4.723 0 1 0-4.394-3.14l-10.85 1.325L19.628.35a1.166 1.166 0 0 0-.824-.35c-.306.002-.6.124-.817.34L14.68 3.63a1.167 1.167 0 0 0 0 1.65l1.78 1.805a32.686 32.686 0 0 0 5.511 38.638c.094.09.202.161.32.213a6.77 6.77 0 0 0-.114 1.197v13.534h-14A5.84 5.84 0 0 0 2.342 66.5v2.333c0 .645.523 1.167 1.167 1.167h53.667c.644 0 1.166-.522 1.166-1.167V66.5a5.84 5.84 0 0 0-5.833-5.833h-14v-5.998c2.193.46 4.428.694 6.669.7a32.483 32.483 0 0 0 15.4-3.901l1.79 1.8c.216.221.513.347.823.35.306-.002.6-.124.817-.34l3.308-3.29a1.167 1.167 0 0 0 0-1.65ZM50.925 13.635a2.333 2.333 0 1 1 1.645 3.987h-.008a2.333 2.333 0 0 1-1.633-3.987h-.004ZM48.178 21.3l-1.309 6.444-2.571-2.587 3.88-3.857Zm-1.325-1.973-4.2 4.176-3.25-3.267 7.45-.909ZM52.509 63a3.5 3.5 0 0 1 3.5 3.5v1.167H4.676V66.5a3.5 3.5 0 0 1 3.5-3.5h44.333Zm-16.333-4.667v2.334H24.509v-2.334h11.667ZM24.509 56v-8.867c0-2.83 2.617-5.133 5.833-5.133 3.217 0 5.834 2.303 5.834 5.133V56H24.509Zm14-3.71v-5.157c0-4.117-3.663-7.466-8.167-7.466a8.312 8.312 0 0 0-7.177 3.907A30.34 30.34 0 0 1 18.18 8.82l40.692 40.925a30.233 30.233 0 0 1-20.363 2.544Zm24.695-1.496-1.644-1.653L18.792 6.116l-1.65-1.655 1.65-1.645L36.15 20.272c.008 0 .013.015.021.021l28.688 28.856-1.655 1.645Z"/><path stroke="#000" d="m66.963 48.692-.002-.001-18.47-18.605-.187-.19.053-.262 2.05-10.096.118-.583.553.217c.472.184.973.28 1.48.284h.017a4.223 4.223 0 1 0-3.928-2.807l.21.588-.62.076-10.85 1.324-.243.03-.172-.174L19.272.703 19.27.7a.666.666 0 0 0-.467-.2.666.666 0 0 0-.463.194l-3.308 3.289a.667.667 0 0 0 0 .943l.003.002 1.78 1.806.26.264-.177.326a32.187 32.187 0 0 0 5.422 38.041c.05.047.108.086.172.114l.362.16-.072.389a6.27 6.27 0 0 0-.106 1.107v14.032h-14.5A5.34 5.34 0 0 0 2.842 66.5v2.333c0 .368.299.667.667.667h53.667a.667.667 0 0 0 .666-.667v-2.332a5.34 5.34 0 0 0-5.334-5.334H38.01v-7.114l.603.127c2.16.452 4.36.683 6.566.689a31.983 31.983 0 0 0 15.162-3.841l.329-.178.263.265 1.79 1.8.002.003a.666.666 0 0 0 .468.2.666.666 0 0 0 .463-.194l3.308-3.29v-.942Zm0 0c.26.26.26.681 0 .942v-.942ZM50.572 13.28l.002.003a2.832 2.832 0 0 0 1.986 4.84H52.569a2.833 2.833 0 1 0-1.997-4.843Zm-1.904 8.12.33-1.618-1.172 1.164-3.88 3.857-.355.353.352.355 2.572 2.586.658.662.186-.915 1.31-6.444Zm-1.462-1.717 1.033-1.028-1.447.177-7.449.909-1.015.123.721.726 3.25 3.266.352.355.354-.353 4.2-4.175Zm8.803 48.484h.5V66.5a4 4 0 0 0-4-4H8.176a4 4 0 0 0-4 4v1.667h51.833Zm-19.333-9.834v-.5H24.009v3.334h12.667v-2.834ZM24.009 56v.5h12.667v-9.367c0-3.164-2.903-5.633-6.334-5.633-3.43 0-6.333 2.469-6.333 5.633V56Zm14-3.71v.4l.39.088a30.733 30.733 0 0 0 20.7-2.587l.612-.311-.484-.487L18.535 8.468l-.485-.488-.314.612a30.84 30.84 0 0 0 5.066 35.326l.445.468.342-.547a7.813 7.813 0 0 1 6.746-3.672h.007c4.27 0 7.667 3.166 7.667 6.966v5.157Zm24.84-1.143.353.354.354-.352 1.656-1.645.355-.352-.353-.355-28.671-28.839a.542.542 0 0 0-.068-.068L19.147 2.464l-.353-.355-.355.353-1.65 1.645-.355.353.354.355 1.65 1.653 42.767 43.026 1.644 1.653Z"/></g><path fill="#2196F3" d="M30.353 44.333h-.01a3.5 3.5 0 0 0-.011 7h.01a3.5 3.5 0 1 0 .01-7Zm.816 4.328a1.167 1.167 0 1 1-.827-1.994 1.166 1.166 0 0 1 .817 1.993h.01Z"/></g><defs><clipPath id="a"><path fill="#fff" d="M0 0h70v70H0z"/></clipPath><filter id="b" width="73.316" height="78" x="-1.658" y="0" color-interpolation-filters="sRGB" filterUnits="userSpaceOnUse"><feFlood flood-opacity="0" result="BackgroundImageFix"/><feColorMatrix in="SourceAlpha" result="hardAlpha" values="0 0 0 0 0 0 0 0 0 0 0 0 0 0 0 0 0 0 127 0"/><feOffset dy="4"/><feGaussianBlur stdDeviation="2"/><feComposite in2="hardAlpha" operator="out"/><feColorMatrix values="0 0 0 0 0 0 0 0 0 0 0 0 0 0 0 0 0 0 0.25 0"/><feBlend in2="BackgroundImageFix" result="effect1_dropShadow_1_533"/><feBlend in="SourceGraphic" in2="effect1_dropShadow_1_533" result="shape"/></filter></defs></svg>